<svg width="3061.5" height="1133.999944" xmlns="http://www.w3.org/2000/svg" version="1.0" preserveAspectRatio="xMidYMid meet" zoomAndPan="magnify">
 <defs>
  <g id="svg_1"/>
  <clipPath id="91dffa9c6d">
   <path id="svg_2" clip-rule="nonzero" d="m1343.21875,98.83984l655.39453,0l0,736.38282l-655.39453,0l0,-736.38282zm0,0"/>
  </clipPath>
  <clipPath id="96f649d813">
   <path id="svg_3" clip-rule="nonzero" d="m417.60547,133.33984l655.39453,0l0,736.37891l-655.39453,0l0,-736.37891zm0,0"/>
  </clipPath>
  <clipPath id="49c521e4f0">
   <path id="svg_4" clip-rule="nonzero" d="m550,833l165,0l0,300.90625l-165,0l0,-300.90625zm0,0"/>
  </clipPath>
  <clipPath id="21834597a5">
   <path id="svg_5" clip-rule="nonzero" d="m529,841l160,0l0,292.90625l-160,0l0,-292.90625zm0,0"/>
  </clipPath>
  <clipPath id="24d5fb000b">
   <path id="svg_6" clip-rule="nonzero" d="m1469,815l164,0l0,311.92188l-164,0l0,-311.92188zm0,0"/>
  </clipPath>
  <clipPath id="dec5490c49">
   <path id="svg_7" clip-rule="nonzero" d="m1448,837l160,0l0,296.90625l-160,0l0,-296.90625zm0,0"/>
  </clipPath>
  <clipPath id="4a8289d7f9">
   <path id="svg_8" clip-rule="nonzero" d="m2332.37109,110.30859l655.39063,0l0,736.38282l-655.39063,0l0,-736.38282zm0,0"/>
  </clipPath>
  <clipPath id="29eda87b44">
   <path id="svg_9" clip-rule="nonzero" d="m2400,822l165,0l0,311.90625l-165,0l0,-311.90625zm0,0"/>
  </clipPath>
  <clipPath id="e1022efa3d">
   <path id="svg_10" clip-rule="nonzero" d="m1943.11328,780l359.88672,0l0,277l-359.88672,0l0,-277zm0,0"/>
  </clipPath>
  <clipPath id="26fbdbdd2f">
   <path id="svg_11" clip-rule="nonzero" d="m2376,830l159,0l0,302.92578l-159,0l0,-302.92578zm0,0"/>
  </clipPath>
  <clipPath id="8ed7cb5ae8">
   <path id="svg_12" clip-rule="nonzero" d="m2386,822l160,0l0,305.45703l-160,0l0,-305.45703zm0,0"/>
  </clipPath>
  <clipPath id="85bfcaec8c">
   <path id="svg_13" clip-rule="nonzero" d="m104.05078,780l364.94922,0l0,281l-364.94922,0l0,-281zm0,0"/>
  </clipPath>
  <clipPath id="2d907c4326">
   <path id="svg_14" clip-rule="nonzero" d="m543,830l162,0l0,303.90625l-162,0l0,-303.90625zm0,0"/>
  </clipPath>
  <clipPath id="6931711525">
   <path id="svg_15" clip-rule="nonzero" d="m1452,824l162,0l0,306.95703l-162,0l0,-306.95703zm0,0"/>
  </clipPath>
 </defs>
 <g>
  <title>Layer 1</title>
  <path id="svg_17" fill-rule="nonzero" d="m1671.08594,426.14063l0,399.14843l319.3164,-159.66015l0,-399.14453l-319.3164,159.65625zm0,0" fill="#ff5656"/>
  <path stroke="null" id="svg_18" fill-rule="nonzero" d="m1671.08594,450.24858l0,381.29066l-619.32525,-152.51701l0,-381.28694l619.32525,152.51328zm0,0" fill="#cccccc"/>
  <path id="svg_29" fill-rule="nonzero" d="m745.47266,466.89081l0,399.14843l319.3164,-159.66015l0,-399.14453l-319.3164,159.65625zm0,0" fill="#7f3f00"/>
  <path id="svg_30" fill-rule="nonzero" d="m745.47266,460.64063l0,399.14843l-319.32032,-159.66015l0,-399.14453l319.32032,159.65625zm0,0" fill="#cccccc"/>
  <path id="svg_70" fill-rule="nonzero" d="m2660.23438,437.60938l0,399.14843l319.32031,-159.66015l0,-399.14453l-319.32031,159.65625zm0,0" fill="#1eab01"/>
  <path stroke="null" id="svg_71" fill-rule="nonzero" d="m2660.23439,424.21608l0,412.54173l-656.82632,-165.0175l0,-412.5377l656.82632,165.01347zm0,0" fill="#cccccc"/>
  <path id="svg_125" stroke-miterlimit="4" stroke-width="15" stroke="#e80303" d="m2084.53123,1052.32425" fill="none"/>
  <text font-weight="bold" xml:space="preserve" text-anchor="start" font-family="Noto Sans JP" font-size="250" id="svg_139" y="657.62757" x="455.71819" stroke-width="0" stroke="#f9f9f9" fill="#000000">C</text>
  <text stroke="#f9f9f9" font-weight="bold" xml:space="preserve" text-anchor="start" font-family="Noto Sans JP" font-size="250" id="svg_140" y="657.62757" x="455.71819" stroke-width="0" fill="#000000">C</text>
  <text xml:space="preserve" text-anchor="start" font-family="Noto Sans JP" font-size="250" id="svg_141" y="670.12794" x="805.72848" stroke-width="0" stroke="#f9f9f9" fill="#000000">A</text>
  <text xml:space="preserve" text-anchor="start" font-family="Noto Sans JP" font-size="250" id="svg_142" y="657.62757" x="1274.49227" stroke-width="0" stroke="#f9f9f9" fill="#000000">N</text>
  <text xml:space="preserve" text-anchor="start" font-family="Noto Sans JP" font-size="250" id="svg_143" y="657.62757" x="1712.00514" stroke-width="0" stroke="#f9f9f9" fill="#000000">C</text>
  <text xml:space="preserve" text-anchor="start" font-family="Noto Sans JP" font-size="250" id="svg_144" y="638.87702" x="2180.76894" stroke-width="0" stroke="#f9f9f9" fill="#000000">E</text>
  <text xml:space="preserve" text-anchor="start" font-family="Noto Sans JP" font-size="250" id="svg_145" y="651.37739" x="2712.03457" stroke-width="0" stroke="#f9f9f9" fill="#000000">R</text>
  <text xml:space="preserve" text-anchor="start" font-family="Noto Sans JP" font-size="250" stroke-width="0" id="svg_146" y="1026.38843" x="1136.98822" stroke="null" fill="#000000">VAGINAL</text>
 </g>
</svg>